<?xml version="1.0" standalone="no"?>
<!DOCTYPE svg PUBLIC "-//W3C//DTD SVG 20010904//EN"
 "http://www.w3.org/TR/2001/REC-SVG-20010904/DTD/svg10.dtd">
<svg version="1.0" xmlns="http://www.w3.org/2000/svg"
 width="180.000000pt" height="180.000000pt" viewBox="0 0 180.000000 180.000000"
 preserveAspectRatio="xMidYMid meet">
<metadata>
Created by potrace 1.16, written by Peter Selinger 2001-2019
</metadata>
<g transform="translate(0.000000,180.000000) scale(0.100000,-0.100000)"
fill="#000000" stroke="none">
<path d="M945 1208 c-66 -38 -132 -79 -148 -90 -44 -32 -59 -80 -60 -198 -1
-162 8 -176 172 -273 173 -104 182 -107 229 -82 78 43 125 171 126 345 0 167
-37 287 -107 346 -46 39 -78 31 -212 -48z m203 41 c82 -75 126 -262 102 -424
-21 -139 -69 -236 -127 -255 -36 -12 -71 3 -238 103 -77 45 -93 60 -114 101
-42 83 -30 277 20 322 10 9 76 52 146 95 138 84 173 94 211 58z"/>
<path d="M1039 1129 c-11 -23 -21 -60 -22 -82 -2 -36 1 -42 20 -45 31 -5 63
-48 63 -86 0 -39 -31 -75 -70 -82 l-28 -6 15 -56 c27 -102 74 -140 109 -87 63
96 67 354 7 456 -27 45 -67 40 -94 -12z m91 -12 c52 -118 46 -338 -11 -419
-28 -39 -47 -35 -70 16 -29 66 -35 106 -16 106 8 0 29 12 46 26 26 21 31 33
31 68 0 49 -18 79 -60 96 -34 14 -36 21 -15 80 30 85 65 95 95 27z"/>
<path d="M569 1087 c-50 -39 -71 -145 -50 -249 9 -43 20 -64 43 -83 27 -23 38
-26 97 -23 73 3 71 0 51 78 -14 54 -8 216 9 248 7 12 9 27 6 32 -9 14 -137 12
-156 -3z m141 -4 c0 -3 -7 -43 -15 -88 -14 -72 -14 -89 0 -159 8 -43 12 -83 9
-87 -8 -14 -81 -11 -118 5 -43 18 -57 59 -58 160 0 87 15 140 45 161 21 15
137 22 137 8z"/>
</g>
</svg>
